<svg xmlns="http://www.w3.org/2000/svg" width="181" height="13" fill="none" viewBox="0 0 181 13"><path fill="#466FFF" fill-rule="evenodd" d="M82.836 4.5H0v2h83.5l-.664-2Zm14.664 2H181v-2H98.164l-.664 2Z" clip-rule="evenodd"/><path fill="#466FFF" d="m90.5.5 2.1 2.363 3.096.637-.996 3 .996 3-3.096.637-2.1 2.363-2.1-2.363-3.096-.637.996-3-.996-3 3.096-.637L90.5.5Z"/><path fill="#223780" d="m90.5 3.5 1.05 1.181L93.098 5 92.6 6.5l.498 1.5-1.548.319L90.5 9.5l-1.05-1.181L87.902 8l.498-1.5-.498-1.5 1.548-.319L90.5 3.5Z"/></svg>